<svg width="183" height="184" viewBox="0 0 183 184" fill="none" xmlns="http://www.w3.org/2000/svg">
<g id="label">
<g id="text">
<g id="Vector">
<path d="M5.33025 82.5749L6.91596 78.6106C7.66476 76.8047 9.03023 76.2321 10.704 76.8487C12.4219 77.5094 13.0385 78.919 12.2897 80.7249L11.1885 83.4999L14.9326 84.9534L14.4481 86.1427L5.33025 82.5749ZM10.1755 83.1034L11.1445 80.7249C11.7171 79.3594 11.3207 78.5225 10.2636 78.0821C9.20642 77.6416 8.36952 78.038 7.7969 79.4035L6.82786 81.782L10.1755 83.1034Z" fill="#1B3B36"/>
<path d="M5.33025 82.5749L6.91596 78.6106C7.66476 76.8047 9.03023 76.2321 10.704 76.8487C12.4219 77.5094 13.0385 78.919 12.2897 80.7249L11.1885 83.4999L14.9326 84.9534L14.4481 86.1427L5.33025 82.5749ZM10.1755 83.1034L11.1445 80.7249C11.7171 79.3594 11.3207 78.5225 10.2636 78.0821C9.20642 77.6416 8.36952 78.038 7.7969 79.4035L6.82786 81.782L10.1755 83.1034Z" fill="black" fill-opacity="0.2"/>
</g>
<g id="Vector_2">
<path d="M10.6173 70.7721L13.0399 66.8519C14.0089 65.2662 15.4625 64.8697 16.7839 65.6626C17.753 66.2792 18.3696 67.2483 18.0172 68.3935C18.8101 67.5126 19.6029 67.7768 20.4839 68.2173C21.3648 68.6578 22.2458 69.2745 23.0827 69.1423L22.2898 70.3756C21.7613 70.4637 20.9684 69.759 20.0875 69.4066C19.2065 69.0542 18.4137 68.7899 17.7089 69.8471L16.0351 72.578L19.5589 74.7804L18.8982 75.8816L10.6173 70.7721ZM16.5196 69.7149C17.1803 68.7018 17.4446 67.6447 16.2553 66.8959C15.4184 66.4114 14.5815 66.4554 13.9208 67.4685L12.203 70.2435L15.1101 72.0054L16.5196 69.7149Z" fill="#1B3B36"/>
<path d="M10.6173 70.7721L13.0399 66.8519C14.0089 65.2662 15.4625 64.8697 16.7839 65.6626C17.753 66.2792 18.3696 67.2483 18.0172 68.3935C18.8101 67.5126 19.6029 67.7768 20.4839 68.2173C21.3648 68.6578 22.2458 69.2745 23.0827 69.1423L22.2898 70.3756C21.7613 70.4637 20.9684 69.759 20.0875 69.4066C19.2065 69.0542 18.4137 68.7899 17.7089 69.8471L16.0351 72.578L19.5589 74.7804L18.8982 75.8816L10.6173 70.7721ZM16.5196 69.7149C17.1803 68.7018 17.4446 67.6447 16.2553 66.8959C15.4184 66.4114 14.5815 66.4554 13.9208 67.4685L12.203 70.2435L15.1101 72.0054L16.5196 69.7149Z" fill="black" fill-opacity="0.2"/>
</g>
<g id="Vector_3">
<path d="M18.1476 59.6276L22.6404 54.6062L23.4773 55.355L19.8654 59.4073L22.1999 61.4776L25.5475 57.6895L26.3844 58.4383L22.9487 62.2264L25.4594 64.4728L29.1154 60.3764L29.9523 61.1252L25.4154 66.1906L18.1476 59.6276Z" fill="#1B3B36"/>
<path d="M18.1476 59.6276L22.6404 54.6062L23.4773 55.355L19.8654 59.4073L22.1999 61.4776L25.5475 57.6895L26.3844 58.4383L22.9487 62.2264L25.4594 64.4728L29.1154 60.3764L29.9523 61.1252L25.4154 66.1906L18.1476 59.6276Z" fill="black" fill-opacity="0.2"/>
</g>
<g id="Vector_4">
<path d="M26.8234 50.5101L28.2329 49.4529L35.6769 54.0779L33.1222 45.7089L34.5317 44.6518L40.5222 52.4041L39.5091 53.1529L34.5317 46.6779L37.0424 55.0029L36.1615 55.7077L28.8056 51.0827L33.7829 57.5576L32.7698 58.3064L26.8234 50.5101Z" fill="#1B3B36"/>
<path d="M26.8234 50.5101L28.2329 49.4529L35.6769 54.0779L33.1222 45.7089L34.5317 44.6518L40.5222 52.4041L39.5091 53.1529L34.5317 46.6779L37.0424 55.0029L36.1615 55.7077L28.8056 51.0827L33.7829 57.5576L32.7698 58.3064L26.8234 50.5101Z" fill="black" fill-opacity="0.2"/>
</g>
<g id="Vector_5">
<path d="M39.8649 41.5262L41.0102 40.9095L45.6792 49.5428L44.534 50.1594L39.8649 41.5262Z" fill="#1B3B36"/>
<path d="M39.8649 41.5262L41.0102 40.9095L45.6792 49.5428L44.534 50.1594L39.8649 41.5262Z" fill="black" fill-opacity="0.2"/>
</g>
<g id="Vector_6">
<path d="M55.8956 41.3501C56.7765 43.6406 55.8956 45.4025 53.6051 46.1953C51.2266 47.0763 49.4206 46.5036 48.5397 44.037L46.3814 38.1787L47.6147 37.7382L49.773 43.5965C50.3456 45.2263 51.667 45.7548 53.2528 45.1382C54.7944 44.5656 55.323 43.3322 54.7063 41.7465L52.548 35.8882L53.7813 35.4478L55.8956 41.3501Z" fill="#1B3B36"/>
<path d="M55.8956 41.3501C56.7765 43.6406 55.8956 45.4025 53.6051 46.1953C51.2266 47.0763 49.4206 46.5036 48.5397 44.037L46.3814 38.1787L47.6147 37.7382L49.773 43.5965C50.3456 45.2263 51.667 45.7548 53.2528 45.1382C54.7944 44.5656 55.323 43.3322 54.7063 41.7465L52.548 35.8882L53.7813 35.4478L55.8956 41.3501Z" fill="black" fill-opacity="0.2"/>
</g>
<g id="Vector_7">
<path d="M59.9044 33.8158L61.6663 33.5515L65.9829 41.2158L67.7889 32.6265L69.5508 32.3622L71.0484 42.0527L69.8151 42.2289L68.5817 34.2122L66.7758 42.7134L65.6746 42.8455L61.4461 35.2694L62.6794 43.286L61.4461 43.4622L59.9044 33.8158Z" fill="#1B3B36"/>
<path d="M59.9044 33.8158L61.6663 33.5515L65.9829 41.2158L67.7889 32.6265L69.5508 32.3622L71.0484 42.0527L69.8151 42.2289L68.5817 34.2122L66.7758 42.7134L65.6746 42.8455L61.4461 35.2694L62.6794 43.286L61.4461 43.4622L59.9044 33.8158Z" fill="black" fill-opacity="0.2"/>
</g>
<g id="Vector_8">
<path d="M83.2492 32.4063L87.7861 33.067C89.636 33.3313 90.6051 34.4766 90.3848 36.0182C90.2087 37.1635 89.548 38.0884 88.3587 38.2206C89.4599 38.617 89.592 39.4539 89.5039 40.423C89.4158 41.392 89.2396 42.4491 89.6801 43.1539L88.2265 42.9337C87.9182 42.4491 88.2706 41.4801 88.2265 40.467C88.2265 39.498 88.0944 38.6611 86.8611 38.4849L83.6897 38.0444L83.073 42.1848L81.7516 42.0087L83.2492 32.4063ZM86.5968 37.4277C87.8301 37.6039 88.8872 37.4277 89.0634 36.0182C89.1956 35.0932 88.7551 34.3004 87.6099 34.1242L84.3944 33.6397L83.9099 37.0313L86.5968 37.4277Z" fill="#1B3B36"/>
<path d="M83.2492 32.4063L87.7861 33.067C89.636 33.3313 90.6051 34.4766 90.3848 36.0182C90.2087 37.1635 89.548 38.0884 88.3587 38.2206C89.4599 38.617 89.592 39.4539 89.5039 40.423C89.4158 41.392 89.2396 42.4491 89.6801 43.1539L88.2265 42.9337C87.9182 42.4491 88.2706 41.4801 88.2265 40.467C88.2265 39.498 88.0944 38.6611 86.8611 38.4849L83.6897 38.0444L83.073 42.1848L81.7516 42.0087L83.2492 32.4063ZM86.5968 37.4277C87.8301 37.6039 88.8872 37.4277 89.0634 36.0182C89.1956 35.0932 88.7551 34.3004 87.6099 34.1242L84.3944 33.6397L83.9099 37.0313L86.5968 37.4277Z" fill="black" fill-opacity="0.2"/>
</g>
<g id="Vector_9">
<path d="M100.56 35.9742C103.511 36.9873 104.216 39.8063 103.335 42.3611C102.498 44.8718 100.208 46.7217 97.2567 45.7087C94.3055 44.6956 93.6007 41.8765 94.4817 39.3218C95.2745 36.767 97.609 34.9611 100.56 35.9742ZM97.565 44.6075C99.8114 45.3563 101.441 43.7265 102.058 41.8765C102.674 40.0265 102.41 37.7361 100.164 36.9873C97.9174 36.2385 96.2876 37.8682 95.671 39.7182C95.0543 41.5682 95.3186 43.8587 97.565 44.6075Z" fill="#1B3B36"/>
<path d="M100.56 35.9742C103.511 36.9873 104.216 39.8063 103.335 42.3611C102.498 44.8718 100.208 46.7217 97.2567 45.7087C94.3055 44.6956 93.6007 41.8765 94.4817 39.3218C95.2745 36.767 97.609 34.9611 100.56 35.9742ZM97.565 44.6075C99.8114 45.3563 101.441 43.7265 102.058 41.8765C102.674 40.0265 102.41 37.7361 100.164 36.9873C97.9174 36.2385 96.2876 37.8682 95.671 39.7182C95.0543 41.5682 95.3186 43.8587 97.565 44.6075Z" fill="black" fill-opacity="0.2"/>
</g>
<g id="Vector_10">
<path d="M113.862 42.0528C116.549 43.5944 116.681 46.5456 115.36 48.836C114.039 51.1265 111.44 52.492 108.709 50.9063C105.978 49.3206 105.89 46.4134 107.211 44.123C108.621 41.8325 111.22 40.4671 113.862 42.0528ZM109.281 49.9813C111.352 51.1706 113.246 49.8932 114.215 48.2194C115.228 46.5015 115.36 44.2551 113.334 43.0218C111.264 41.8325 109.37 43.1099 108.401 44.7837C107.387 46.5015 107.255 48.748 109.281 49.9813Z" fill="#1B3B36"/>
<path d="M113.862 42.0528C116.549 43.5944 116.681 46.5456 115.36 48.836C114.039 51.1265 111.44 52.492 108.709 50.9063C105.978 49.3206 105.89 46.4134 107.211 44.123C108.621 41.8325 111.22 40.4671 113.862 42.0528ZM109.281 49.9813C111.352 51.1706 113.246 49.8932 114.215 48.2194C115.228 46.5015 115.36 44.2551 113.334 43.0218C111.264 41.8325 109.37 43.1099 108.401 44.7837C107.387 46.5015 107.255 48.748 109.281 49.9813Z" fill="black" fill-opacity="0.2"/>
</g>
<g id="Vector_11">
<path d="M122.628 48.0888L123.994 49.2781L120.778 57.4269L128.575 53.4186L129.94 54.6078L123.377 61.8756L122.452 61.0387L127.914 54.9602L120.206 58.9685L119.369 58.2197L122.54 50.115L117.078 56.1935L116.153 55.3566L122.628 48.0888Z" fill="#1B3B36"/>
<path d="M122.628 48.0888L123.994 49.2781L120.778 57.4269L128.575 53.4186L129.94 54.6078L123.377 61.8756L122.452 61.0387L127.914 54.9602L120.206 58.9685L119.369 58.2197L122.54 50.115L117.078 56.1935L116.153 55.3566L122.628 48.0888Z" fill="black" fill-opacity="0.2"/>
</g>
<g id="Vector_12">
<path d="M135.226 65.6194C136.283 64.6504 136.151 63.5492 135.358 62.492C134.698 61.6551 133.729 60.9504 132.672 61.7432C131.703 62.448 132.495 63.8575 133.156 65.3111C133.817 66.7646 134.345 68.3503 132.76 69.4956C131.086 70.7289 129.192 69.6277 128.135 68.2182C126.813 66.4563 126.549 64.342 128.443 62.8885L129.192 63.9016C127.87 64.8706 128.135 66.4563 129.016 67.6015C129.72 68.5706 130.778 69.3634 131.923 68.4825C132.98 67.6896 132.275 66.2801 131.614 64.8266C130.954 63.373 130.381 61.8313 131.791 60.7742C133.376 59.5409 135.182 60.4659 136.239 61.8754C137.473 63.4611 137.605 65.267 135.931 66.5884L135.226 65.6194Z" fill="#1B3B36"/>
<path d="M135.226 65.6194C136.283 64.6504 136.151 63.5492 135.358 62.492C134.698 61.6551 133.729 60.9504 132.672 61.7432C131.703 62.448 132.495 63.8575 133.156 65.3111C133.817 66.7646 134.345 68.3503 132.76 69.4956C131.086 70.7289 129.192 69.6277 128.135 68.2182C126.813 66.4563 126.549 64.342 128.443 62.8885L129.192 63.9016C127.87 64.8706 128.135 66.4563 129.016 67.6015C129.72 68.5706 130.778 69.3634 131.923 68.4825C132.98 67.6896 132.275 66.2801 131.614 64.8266C130.954 63.373 130.381 61.8313 131.791 60.7742C133.376 59.5409 135.182 60.4659 136.239 61.8754C137.473 63.4611 137.605 65.267 135.931 66.5884L135.226 65.6194Z" fill="black" fill-opacity="0.2"/>
</g>
<g id="Vector_13">
<path d="M133.993 73.901L134.697 75.2224L133.376 75.9271L132.671 74.6057L133.993 73.901Z" fill="#1B3B36"/>
<path d="M133.993 73.901L134.697 75.2224L133.376 75.9271L132.671 74.6057L133.993 73.901Z" fill="black" fill-opacity="0.2"/>
</g>
<g id="Vector_14">
<path d="M147.34 83.3702L148.309 86.8059C148.529 87.6428 148.838 88.744 148.661 89.3606C148.485 90.0654 147.957 90.7701 146.988 91.0344C145.975 91.3428 145.094 90.9904 144.477 90.1975C144.565 91.4309 143.86 92.3118 142.671 92.6201C141.306 93.0166 139.676 92.3559 139.147 90.5059L137.87 85.969L147.34 83.3702ZM139.367 86.938L140.248 90.1094C140.557 91.2106 141.394 91.6951 142.451 91.4309C143.684 91.0785 143.728 89.9773 143.464 88.9202L142.627 86.0571L139.367 86.938ZM143.64 85.7488L144.301 88.2594C144.697 89.713 145.358 90.1094 146.327 89.8451C147.648 89.4928 147.56 88.5237 147.252 87.4225L146.591 84.9119L143.64 85.7488Z" fill="#1B3B36"/>
<path d="M147.34 83.3702L148.309 86.8059C148.529 87.6428 148.838 88.744 148.661 89.3606C148.485 90.0654 147.957 90.7701 146.988 91.0344C145.975 91.3428 145.094 90.9904 144.477 90.1975C144.565 91.4309 143.86 92.3118 142.671 92.6201C141.306 93.0166 139.676 92.3559 139.147 90.5059L137.87 85.969L147.34 83.3702ZM139.367 86.938L140.248 90.1094C140.557 91.2106 141.394 91.6951 142.451 91.4309C143.684 91.0785 143.728 89.9773 143.464 88.9202L142.627 86.0571L139.367 86.938ZM143.64 85.7488L144.301 88.2594C144.697 89.713 145.358 90.1094 146.327 89.8451C147.648 89.4928 147.56 88.5237 147.252 87.4225L146.591 84.9119L143.64 85.7488Z" fill="black" fill-opacity="0.2"/>
</g>
<g id="Vector_15">
<path d="M150.684 99.1384L150.816 100.592L141.434 105.305L141.302 103.851L144.121 102.53L143.725 98.4336L140.686 97.5967L140.553 96.2312L150.684 99.1384ZM144.87 98.6979L145.178 102.001L149.539 99.9312L144.87 98.6979Z" fill="#1B3B36"/>
<path d="M150.684 99.1384L150.816 100.592L141.434 105.305L141.302 103.851L144.121 102.53L143.725 98.4336L140.686 97.5967L140.553 96.2312L150.684 99.1384ZM144.87 98.6979L145.178 102.001L149.539 99.9312L144.87 98.6979Z" fill="black" fill-opacity="0.2"/>
</g>
<g id="Vector_16">
<path d="M151.17 109.401L151.038 110.767L142.713 115.215L150.598 115.876L150.509 117.109L140.731 116.317L140.819 114.907L149.056 110.458L141.259 109.798L141.348 108.564L151.17 109.401Z" fill="#1B3B36"/>
<path d="M151.17 109.401L151.038 110.767L142.713 115.215L150.598 115.876L150.509 117.109L140.731 116.317L140.819 114.907L149.056 110.458L141.259 109.798L141.348 108.564L151.17 109.401Z" fill="black" fill-opacity="0.2"/>
</g>
<g id="Vector_17">
<path d="M149.407 123.32L149.055 124.553L144.342 123.276L147.778 129.354L147.337 130.94L144.606 125.919L137.867 128.518L138.307 126.932L144.034 124.818L143.02 122.835L139.717 121.91L140.069 120.677L149.407 123.32Z" fill="#1B3B36"/>
<path d="M149.407 123.32L149.055 124.553L144.342 123.276L147.778 129.354L147.337 130.94L144.606 125.919L137.867 128.518L138.307 126.932L144.034 124.818L143.02 122.835L139.717 121.91L140.069 120.677L149.407 123.32Z" fill="black" fill-opacity="0.2"/>
</g>
<g id="Vector_18">
<path d="M142.273 142.524L141.613 143.626L138.001 141.423L135.358 145.828L138.97 148.03L138.309 149.132L129.94 144.022L130.601 142.921L134.433 145.255L137.076 140.851L133.244 138.516L133.904 137.415L142.273 142.524Z" fill="#1B3B36"/>
<path d="M142.273 142.524L141.613 143.626L138.001 141.423L135.358 145.828L138.97 148.03L138.309 149.132L129.94 144.022L130.601 142.921L134.433 145.255L137.076 140.851L133.244 138.516L133.904 137.415L142.273 142.524Z" fill="black" fill-opacity="0.2"/>
</g>
<g id="Vector_19">
<path d="M131.878 157.501C129.763 159.791 126.9 159.307 124.918 157.501C122.936 155.695 122.187 152.92 124.257 150.585C126.328 148.251 129.235 148.779 131.217 150.585C133.199 152.391 133.948 155.166 131.878 157.501ZM125.094 151.334C123.509 153.096 124.346 155.254 125.799 156.532C127.253 157.809 129.455 158.514 131.041 156.752C132.626 154.99 131.79 152.832 130.336 151.554C128.882 150.277 126.68 149.572 125.094 151.334Z" fill="#1B3B36"/>
<path d="M131.878 157.501C129.763 159.791 126.9 159.307 124.918 157.501C122.936 155.695 122.187 152.92 124.257 150.585C126.328 148.251 129.235 148.779 131.217 150.585C133.199 152.391 133.948 155.166 131.878 157.501ZM125.094 151.334C123.509 153.096 124.346 155.254 125.799 156.532C127.253 157.809 129.455 158.514 131.041 156.752C132.626 154.99 131.79 152.832 130.336 151.554C128.882 150.277 126.68 149.572 125.094 151.334Z" fill="black" fill-opacity="0.2"/>
</g>
<g id="Vector_20">
<path d="M121.88 165.033L124.479 163.05L125.14 163.887L118.929 168.688L118.268 167.852L120.867 165.869L115.582 158.998L116.639 158.205L121.88 165.033Z" fill="#1B3B36"/>
<path d="M121.88 165.033L124.479 163.05L125.14 163.887L118.929 168.688L118.268 167.852L120.867 165.869L115.582 158.998L116.639 158.205L121.88 165.033Z" fill="black" fill-opacity="0.2"/>
</g>
<g id="Vector_21">
<path d="M114.656 171.377L108.709 174.592L108.181 173.623L112.982 171.025L111.484 168.294L107.035 170.716L106.507 169.747L110.956 167.325L109.326 164.373L104.481 167.016L103.952 166.047L109.943 162.788L114.656 171.377Z" fill="#1B3B36"/>
<path d="M114.656 171.377L108.709 174.592L108.181 173.623L112.982 171.025L111.484 168.294L107.035 170.716L106.507 169.747L110.956 167.325L109.326 164.373L104.481 167.016L103.952 166.047L109.943 162.788L114.656 171.377Z" fill="black" fill-opacity="0.2"/>
</g>
<g id="Vector_22">
<path d="M103.599 176.792L102.365 177.233L99.4583 169.04L94.569 170.758L94.2166 169.701L100.339 167.542L103.599 176.792Z" fill="#1B3B36"/>
<path d="M103.599 176.792L102.365 177.233L99.4583 169.04L94.569 170.758L94.2166 169.701L100.339 167.542L103.599 176.792Z" fill="black" fill-opacity="0.2"/>
</g>
</g>
<g id="icon">
<g id="Rectangle 93">
<path d="M90.7219 89.9031C91.5821 88.7898 93.2245 88.685 94.2194 89.6798C95.1479 90.6084 95.05 92.1412 94.011 92.9441L80.0147 103.759L90.7219 89.9031Z" fill="#FCD043"/>
</g>
<g id="Rectangle 95">
<path d="M93.8699 114.466C94.9831 115.326 95.088 116.968 94.0931 117.963C93.1646 118.892 91.6317 118.794 90.8288 117.755L80.0135 103.758L93.8699 114.466Z" fill="#FCD043"/>
</g>
<g id="Rectangle 97">
<path d="M97.3773 101.611C98.7728 101.432 100.008 102.519 100.008 103.926C100.008 105.24 98.8552 106.254 97.5527 106.087L80.0083 103.838L97.3773 101.611Z" fill="#FCD043"/>
</g>
<g id="Rectangle 99">
<path d="M82.2379 121.214C82.4168 122.609 81.3296 123.845 79.9227 123.845C78.6095 123.845 77.5948 122.692 77.7618 121.389L80.0111 103.845L82.2379 121.214Z" fill="#FCD043"/>
</g>
<g id="Rectangle 94">
<path d="M69.3016 117.614C68.4413 118.727 66.7989 118.832 65.8041 117.837C64.8755 116.908 64.9734 115.375 66.0125 114.572L80.0087 103.757L69.3016 117.614Z" fill="#FCD043"/>
</g>
<g id="Rectangle 96">
<path d="M66.1536 93.0511C65.0403 92.1908 64.9354 90.5484 65.9303 89.5536C66.8588 88.625 68.3917 88.7229 69.1946 89.762L80.0099 103.758L66.1536 93.0511Z" fill="#FCD043"/>
</g>
<g id="Rectangle 98">
<path d="M62.6393 106.067C61.2438 106.246 60.0083 105.159 60.0083 103.752C60.0083 102.439 61.1614 101.424 62.4639 101.591L80.0083 103.84L62.6393 106.067Z" fill="#FCD043"/>
</g>
<g id="Rectangle 100">
<path d="M77.7836 86.4711C77.6047 85.0755 78.6919 83.8401 80.0988 83.8401C81.412 83.8401 82.4267 84.9932 82.2597 86.2957L80.0104 103.84L77.7836 86.4711Z" fill="#FCD043"/>
</g>
</g>
</g>
</svg>
