<svg width="146" height="149" viewBox="0 0 146 149" fill="none" xmlns="http://www.w3.org/2000/svg">
<g id="label">
<g id="text" opacity="0.64">
<path id="Vector" d="M65.2596 143.586L62.0882 142.318C60.6435 141.719 60.1854 140.626 60.6787 139.287C61.2073 137.913 62.3349 137.42 63.7796 138.019L65.9996 138.9L67.1624 135.905L68.1138 136.292L65.2596 143.586ZM65.6825 139.71L63.7796 138.935C62.6873 138.477 62.0177 138.794 61.6654 139.64C61.313 140.485 61.6301 141.155 62.7225 141.613L64.6253 142.388L65.6825 139.71Z" fill="#FFFCF6"/>
<path id="Vector_2" d="M55.8166 139.358L52.6805 137.42C51.412 136.645 51.0948 135.482 51.7291 134.425C52.2224 133.65 52.9977 133.156 53.9138 133.438C53.2091 132.804 53.4205 132.17 53.7729 131.465C54.1253 130.76 54.6186 130.055 54.5129 129.386L55.4995 130.02C55.57 130.443 55.0062 131.077 54.7243 131.782C54.4424 132.487 54.231 133.121 55.0767 133.685L57.2614 135.024L59.0232 132.205L59.9042 132.733L55.8166 139.358ZM54.9709 134.636C54.1605 134.108 53.3148 133.896 52.7158 134.848C52.3282 135.517 52.3634 136.187 53.1738 136.715L55.3938 138.089L56.8033 135.764L54.9709 134.636Z" fill="#FFFCF6"/>
<path id="Vector_3" d="M46.901 133.332L42.8839 129.737L43.4829 129.068L46.7248 131.957L48.381 130.09L45.3505 127.412L45.9496 126.742L48.98 129.491L50.7772 127.482L47.5 124.557L48.0991 123.888L52.1514 127.517L46.901 133.332Z" fill="#FFFCF6"/>
<path id="Vector_4" d="M39.6071 126.39L38.7613 125.263L42.4613 119.307L35.7661 121.351L34.9204 120.224L41.1223 115.431L41.7213 116.242L36.5414 120.224L43.2013 118.215L43.7651 118.92L40.0651 124.804L45.2451 120.823L45.8441 121.633L39.6071 126.39Z" fill="#FFFCF6"/>
<path id="Vector_5" d="M32.4183 115.961L31.925 115.045L38.8317 111.31L39.325 112.226L32.4183 115.961Z" fill="#FFFCF6"/>
<path id="Vector_6" d="M32.2763 103.134C34.1087 102.429 35.5182 103.134 36.1524 104.966C36.8572 106.869 36.3991 108.314 34.4258 109.019L29.7392 110.745L29.3868 109.759L34.0734 108.032C35.3772 107.574 35.8001 106.517 35.3067 105.248C34.8486 104.015 33.862 103.592 32.5934 104.085L27.9068 105.812L27.5545 104.825L32.2763 103.134Z" fill="#FFFCF6"/>
<path id="Vector_7" d="M26.2512 99.9261L26.0398 98.5166L32.1711 95.0633L25.2998 93.6186L25.0884 92.2091L32.8406 91.011L32.9815 91.9976L26.5683 92.9843L33.3691 94.429L33.4749 95.31L27.414 98.6928L33.8272 97.7061L33.9682 98.6928L26.2512 99.9261Z" fill="#FFFCF6"/>
<path id="Vector_8" d="M25.1245 81.2503L25.6531 77.6208C25.8645 76.1408 26.7807 75.3656 28.014 75.5418C28.9302 75.6827 29.6702 76.2113 29.7759 77.1627C30.093 76.2817 30.7625 76.176 31.5378 76.2465C32.313 76.317 33.1587 76.4579 33.7225 76.1056L33.5463 77.2684C33.1587 77.5151 32.3835 77.2332 31.573 77.2684C30.7978 77.2684 30.1283 77.3741 29.9873 78.3608L29.6349 80.8979L32.9473 81.3912L32.8063 82.4483L25.1245 81.2503ZM29.1416 78.5722C29.2826 77.5855 29.1416 76.7398 28.014 76.5989C27.274 76.4932 26.6397 76.8456 26.4988 77.7617L26.1112 80.3341L28.8245 80.7217L29.1416 78.5722Z" fill="#FFFCF6"/>
<path id="Vector_9" d="M27.9781 67.4016C28.7886 65.0406 31.0438 64.4768 33.0876 65.1816C35.0962 65.8511 36.5762 67.6835 35.7657 70.0444C34.9552 72.4053 32.7 72.9691 30.6562 72.2643C28.6124 71.6301 27.1677 69.7625 27.9781 67.4016ZM34.8848 69.7977C35.4838 68.0006 34.18 66.6968 32.7 66.2035C31.22 65.7102 29.3877 65.9216 28.7886 67.7187C28.1896 69.5158 29.4934 70.8196 30.9734 71.3129C32.4534 71.8062 34.2857 71.5948 34.8848 69.7977Z" fill="#FFFCF6"/>
<path id="Vector_10" d="M32.8406 56.7611C34.074 54.6116 36.4349 54.5059 38.2673 55.563C40.0997 56.6201 41.192 58.6991 39.9235 60.8839C38.6549 63.0686 36.3292 63.139 34.4968 62.0819C32.6644 60.9543 31.572 58.8753 32.8406 56.7611ZM39.1835 60.4258C40.1349 58.7696 39.113 57.2544 37.7739 56.4792C36.3997 55.6687 34.6025 55.563 33.6159 57.1839C32.6644 58.8401 33.6863 60.3553 35.0254 61.1305C36.3997 61.941 38.1968 62.0467 39.1835 60.4258Z" fill="#FFFCF6"/>
<path id="Vector_11" d="M37.6691 49.7476L38.6205 48.6552L45.1394 51.2275L41.9328 44.9905L42.8842 43.8981L48.6984 49.1485L48.0289 49.8885L43.1661 45.519L46.3727 51.6856L45.7737 52.3551L39.29 49.818L44.1528 54.1875L43.4833 54.9275L37.6691 49.7476Z" fill="#FFFCF6"/>
<path id="Vector_12" d="M51.6943 39.6699C50.919 38.8242 50.0381 38.93 49.1924 39.5642C48.5229 40.0928 47.9591 40.868 48.5933 41.7137C49.1571 42.489 50.2847 41.8547 51.4476 41.3261C52.6104 40.7975 53.879 40.3747 54.7952 41.6433C55.7818 42.9823 54.9009 44.4975 53.7733 45.3432C52.3638 46.4003 50.6724 46.6118 49.5095 45.0965L50.32 44.4975C51.0952 45.5546 52.3638 45.3432 53.2799 44.6385C54.0552 44.0746 54.6895 43.2289 53.9847 42.3128C53.3504 41.4671 52.2228 42.0309 51.06 42.5594C49.8971 43.088 48.6638 43.5461 47.8181 42.4185C46.8315 41.1499 47.5714 39.7052 48.699 38.8595C49.9676 37.8728 51.4123 37.7671 52.4695 39.1061L51.6943 39.6699Z" fill="#FFFCF6"/>
<path id="Vector_13" d="M58.3167 40.6571L59.3743 40.0931L59.9384 41.1506L58.8808 41.7147L58.3167 40.6571Z" fill="#FFFCF6"/>
<path id="Vector_14" d="M65.8945 29.9797L68.6431 29.2045C69.3126 29.0283 70.1935 28.7816 70.6868 28.9226C71.2506 29.0635 71.8145 29.4864 72.0259 30.2616C72.2725 31.0721 71.9906 31.7768 71.3564 32.2701C72.343 32.1997 73.0478 32.7635 73.2944 33.7149C73.6116 34.8073 73.083 36.1111 71.603 36.5339L67.9735 37.5558L65.8945 29.9797ZM68.7488 36.3577L71.2859 35.653C72.1668 35.4063 72.5544 34.7368 72.343 33.8911C72.0611 32.9044 71.1802 32.8692 70.3345 33.0806L68.044 33.7501L68.7488 36.3577ZM67.7973 32.9397L69.8059 32.4111C70.9687 32.094 71.2859 31.5654 71.0745 30.7902C70.7926 29.733 70.0173 29.8035 69.1364 30.0502L67.1278 30.5787L67.7973 32.9397Z" fill="#FFFCF6"/>
<path id="Vector_15" d="M78.5092 27.3024L79.672 27.1967L83.4424 34.7022L82.2796 34.808L81.2224 32.5528L77.9454 32.8699L77.2758 35.3013L76.1835 35.407L78.5092 27.3024ZM78.1568 31.9537L80.7996 31.7071L79.1434 28.2185L78.1568 31.9537Z" fill="#FFFCF6"/>
<path id="Vector_16" d="M86.7199 26.9124L87.8122 27.0181L91.3713 33.678L91.8998 27.3705L92.8865 27.441L92.2522 35.2637L91.1246 35.1932L87.5656 28.6038L87.037 34.8408L86.0504 34.7704L86.7199 26.9124Z" fill="#FFFCF6"/>
<path id="Vector_17" d="M97.855 28.3236L98.8416 28.6055L97.8197 32.3759L102.683 29.6274L103.951 29.9798L99.934 32.1645L102.013 37.5558L100.744 37.2035L99.0531 32.6226L97.4674 33.433L96.7274 36.0759L95.7407 35.794L97.855 28.3236Z" fill="#FFFCF6"/>
<path id="Vector_18" d="M113.219 34.0314L114.1 34.5599L112.338 37.4494L115.862 39.5637L117.624 36.6742L118.505 37.2028L114.417 43.8979L113.536 43.3694L115.404 40.3037L111.88 38.1894L110.012 41.2551L109.131 40.7265L113.219 34.0314Z" fill="#FFFCF6"/>
<path id="Vector_19" d="M125.199 42.3477C127.031 44.0391 126.644 46.3295 125.199 47.9152C123.754 49.5009 121.534 50.0999 119.667 48.4438C117.799 46.7876 118.222 44.462 119.667 42.8763C121.111 41.2906 123.331 40.6916 125.199 42.3477ZM120.266 47.7743C121.675 49.0428 123.402 48.3733 124.424 47.2105C125.446 46.0476 126.01 44.2858 124.6 43.0172C123.191 41.7487 121.464 42.4182 120.442 43.581C119.42 44.7439 118.856 46.5057 120.266 47.7743Z" fill="#FFFCF6"/>
<path id="Vector_20" d="M131.224 50.3465L129.639 48.2675L130.308 47.7389L134.149 52.7074L133.48 53.236L131.894 51.157L126.397 55.3855L125.763 54.5398L131.224 50.3465Z" fill="#FFFCF6"/>
<path id="Vector_21" d="M136.3 56.125L138.872 60.8821L138.097 61.3049L136.018 57.464L133.833 58.6621L135.772 62.2211L134.996 62.6439L133.058 59.085L130.697 60.3887L132.812 64.2648L132.036 64.6877L129.429 59.8954L136.3 56.125Z" fill="#FFFCF6"/>
<path id="Vector_22" d="M140.633 64.9705L140.985 65.9572L134.431 68.2829L135.806 72.1943L134.96 72.4762L133.233 67.5781L140.633 64.9705Z" fill="#FFFCF6"/>
</g>
<g id="icon">
<path id="Rectangle 93" d="M70.729 84.3583C69.6255 84.2054 68.9029 83.1175 69.1892 82.0403C69.4565 81.0349 70.5442 80.4956 71.5069 80.891L84.6448 86.2876L70.729 84.3583Z" fill="#FCD043"/>
<path id="Rectangle 95" d="M86.4761 72.4105C86.6244 71.2831 87.7283 70.5466 88.8254 70.843C89.8495 71.1197 90.4008 72.2343 89.9988 73.2153L84.6538 86.2601L86.4761 72.4105Z" fill="#FCD043"/>
<path id="Rectangle 97" d="M76.2034 75.0829C75.5197 74.1847 75.7708 72.8959 76.7382 72.3386C77.6412 71.8184 78.8021 72.2174 79.2104 73.1881L84.704 86.2498L76.2034 75.0829Z" fill="#FCD043"/>
<path id="Rectangle 99" d="M95.823 77.7421C96.7155 77.0615 98.0084 77.3286 98.5766 78.3109C99.1068 79.2277 98.7196 80.3954 97.7519 80.7977L84.7039 86.2218L95.823 77.7421Z" fill="#FCD043"/>
<path id="Rectangle 94" d="M98.5414 88.181C99.6449 88.3339 100.368 89.4218 100.081 90.499C99.8139 91.5044 98.7262 92.0437 97.7635 91.6483L84.6257 86.2517L98.5414 88.181Z" fill="#FCD043"/>
<path id="Rectangle 96" d="M82.7943 100.129C82.646 101.256 81.5421 101.993 80.4449 101.696C79.4209 101.42 78.8696 100.305 79.2716 99.324L84.6166 86.2792L82.7943 100.129Z" fill="#FCD043"/>
<path id="Rectangle 98" d="M93.1808 97.3964C93.8646 98.2946 93.6134 99.5833 92.646 100.141C91.7431 100.661 90.5822 100.262 90.1739 99.2911L84.6801 86.2294L93.1808 97.3964Z" fill="#FCD043"/>
<path id="Rectangle 100" d="M73.563 94.7311C72.6705 95.4117 71.3776 95.1446 70.8094 94.1623C70.2791 93.2455 70.6664 92.0778 71.6341 91.6755L84.6821 86.2513L73.563 94.7311Z" fill="#FCD043"/>
</g>
</g>
</svg>
