<svg width="150" height="109" viewBox="0 0 150 109" fill="none" xmlns="http://www.w3.org/2000/svg">
<g opacity="0.64">
<path d="M7.53566 108.828L5.85377 104.904C5.10626 103.097 5.66689 101.727 7.28649 100.979C8.96838 100.232 10.4011 100.792 11.1486 102.599L12.3322 105.34L16.0074 103.72L16.5058 104.904L7.53566 108.828ZM11.3355 105.776L10.3388 103.409C9.77819 102.038 8.90609 101.727 7.84712 102.163C6.78815 102.599 6.47669 103.471 7.03732 104.841L8.034 107.209L11.3355 105.776Z" fill="#FFFCF6"/>
<path d="M2.92781 96.7437L1.86884 92.2586C1.4328 90.4521 2.18031 89.144 3.67532 88.7702C4.79658 88.5211 5.91785 88.7702 6.47848 89.8292C6.41619 88.6456 7.16369 88.2719 8.09808 87.9604C9.03246 87.649 10.0914 87.4621 10.5898 86.7769L10.9012 88.2096C10.5898 88.6456 9.5308 88.7079 8.65871 89.0817C7.78662 89.4554 7.03911 89.8292 7.28828 91.075L8.03579 94.1897L12.0848 93.2553L12.3963 94.5011L2.92781 96.7437ZM6.35389 91.8226C6.10472 90.639 5.54409 89.7046 4.17366 90.0161C3.23928 90.2652 2.67864 90.8882 2.92781 92.0717L3.67532 95.2486L6.97682 94.4388L6.35389 91.8226Z" fill="#FFFCF6"/>
<path d="M0.373754 83.5371L-2.94072e-07 76.8095L1.12126 76.7472L1.43272 82.1667L4.54734 81.9798L4.23588 76.9341L5.35714 76.8718L5.60631 81.9798L8.9701 81.7929L8.65864 76.3112L9.7799 76.2489L10.1537 83.0388L0.373754 83.5371Z" fill="#FFFCF6"/>
<path d="M0.0623779 70.9541L0.311547 69.2099L8.8456 67.2165L1.12135 63.1052L1.37052 61.361L11.0881 62.6069L10.9012 63.8527L2.80324 62.7938L10.4652 66.9051L10.3406 68.0263L1.86886 69.9574L9.96686 71.0164L9.77999 72.2622L0.0623779 70.9541Z" fill="#FFFCF6"/>
<path d="M2.92969 55.3824L3.30344 54.1365L12.7096 56.9397L12.3358 58.1855L2.92969 55.3824Z" fill="#FFFCF6"/>
<path d="M14.142 43.9202C16.3845 44.9168 17.0074 46.7856 15.9485 48.9659C14.8895 51.2707 13.2076 52.1428 10.8405 51.0215L5.17187 48.4052L5.73251 47.2217L11.4011 49.8379C12.9584 50.5855 14.2666 50.0248 14.9518 48.4675C15.637 46.9725 15.1387 45.7266 13.5813 45.0414L7.91274 42.4251L8.47337 41.2416L14.142 43.9202Z" fill="#FFFCF6"/>
<path d="M11.6487 35.7588L12.7077 34.3261L21.1794 36.6932L16.3829 29.3427L17.4419 27.91L25.353 33.7032L24.6055 34.6999L18.0648 29.9034L22.799 37.1916L22.1138 38.0637L13.7666 35.6966L20.3073 40.4931L19.5598 41.4897L11.6487 35.7588Z" fill="#FFFCF6"/>
<path d="M27.1594 18.2552L30.8347 15.5143C32.3297 14.393 33.8247 14.5176 34.7591 15.7635C35.4443 16.6979 35.6312 17.8191 34.8837 18.7535C35.9426 18.2552 36.6279 18.7535 37.2508 19.501C37.8737 20.2485 38.4966 21.1206 39.3064 21.3075L38.1229 22.1796C37.5622 22.055 37.1262 21.1206 36.3787 20.4354C35.6935 19.7502 35.0083 19.2518 34.0116 19.9994L31.4576 21.9304L33.9493 25.2942L32.8903 26.104L27.1594 18.2552ZM33.0772 19.4387C34.0739 18.6912 34.6968 17.8191 33.8247 16.6979C33.2641 15.9504 32.392 15.7012 31.4576 16.3864L28.8413 18.3175L30.897 21.0583L33.0772 19.4387Z" fill="#FFFCF6"/>
<path d="M41.9227 8.53724C44.7259 7.16681 47.2175 8.66183 48.4011 11.0912C49.5847 13.4583 49.2732 16.3861 46.47 17.7565C43.6669 19.127 41.1752 17.6319 39.9916 15.2025C38.7458 12.8354 39.1195 9.90768 41.9227 8.53724ZM45.9094 16.7598C48.0273 15.7009 48.0273 13.396 47.1553 11.6519C46.2832 9.90768 44.4767 8.47495 42.3587 9.53392C40.2408 10.5929 40.2408 12.8977 41.1129 14.6419C41.985 16.3861 43.7915 17.8188 45.9094 16.7598Z" fill="#FFFCF6"/>
<path d="M55.6272 3.42924C58.6172 2.61944 60.7974 4.61279 61.4827 7.16678C62.1679 9.72077 61.2958 12.5239 58.2435 13.3337C55.1911 14.1435 53.0732 12.1502 52.388 9.59618C51.7651 6.9799 52.6371 4.17675 55.6272 3.42924ZM57.9943 12.2748C60.2991 11.6518 60.7352 9.4093 60.2368 7.54053C59.7385 5.60947 58.2435 3.92758 55.9386 4.48821C53.6338 5.11113 53.1978 7.35366 53.6961 9.22243C54.1945 11.1535 55.6895 12.8354 57.9943 12.2748Z" fill="#FFFCF6"/>
<path d="M66.0937 1.49919L67.9002 1.37461L71.3886 9.41031L74.0672 1.06314L75.8737 0.93856L76.372 10.7185L75.1261 10.7808L74.6901 2.62045L72.0738 10.9053L70.9526 10.9676L67.4642 2.99421L67.9002 11.1545L66.6544 11.2168L66.0937 1.49919Z" fill="#FFFCF6"/>
<path d="M87.3976 4.98715C87.4599 3.55443 86.5878 2.86921 85.2797 2.68234C84.2207 2.55775 83.0372 2.74463 82.8503 4.05277C82.6634 5.23632 84.2207 5.67237 85.7157 6.233C87.2108 6.79363 88.7058 7.54113 88.3943 9.4722C88.0828 11.5278 85.9649 12.0885 84.2207 11.8393C82.0405 11.5278 80.3586 10.2197 80.6701 7.85259L81.9159 8.03947C81.6667 9.65907 82.9749 10.5935 84.4076 10.7803C85.5911 10.9672 86.8993 10.7803 87.0862 9.34762C87.273 8.03948 85.778 7.54114 84.283 6.9805C82.788 6.41987 81.293 5.73466 81.5421 3.99047C81.7913 1.99711 83.7224 1.37419 85.4666 1.62336C87.4599 1.87253 88.8303 3.05609 88.5812 5.17403L87.3976 4.98715Z" fill="#FFFCF6"/>
<path d="M92.3814 11.7152L93.8141 12.1513L93.378 13.584L91.9453 13.1479L92.3814 11.7152Z" fill="#FFFCF6"/>
<path d="M108.515 8.97302L111.63 10.7172C112.377 11.1533 113.374 11.7139 113.685 12.2745C114.059 12.8974 114.184 13.7695 113.685 14.6416C113.187 15.576 112.315 15.9498 111.318 15.8252C112.253 16.635 112.377 17.7563 111.754 18.8152C111.069 20.0611 109.449 20.7463 107.768 19.8119L103.656 17.5071L108.515 8.97302ZM105.4 17.1333L108.266 18.7529C109.263 19.3136 110.197 19.0644 110.758 18.13C111.381 17.0087 110.633 16.1989 109.699 15.6383L107.082 14.2056L105.4 17.1333ZM107.581 13.2712L109.823 14.5793C111.131 15.3268 111.879 15.14 112.377 14.2679C113.062 13.0843 112.315 12.4614 111.318 11.9008L109.076 10.5926L107.581 13.2712Z" fill="#FFFCF6"/>
<path d="M122.031 17.7566L123.152 18.6909L119.851 28.6577L118.729 27.7233L119.788 24.7956L116.611 22.1793L113.871 23.7366L112.812 22.8645L122.031 17.7566ZM117.608 21.5564L120.162 23.6743L121.782 19.127L117.608 21.5564Z" fill="#FFFCF6"/>
<path d="M129.63 24.6713L130.502 25.7303L127.762 34.7626L133.804 29.6547L134.614 30.5891L127.139 36.9429L126.204 35.8839L128.883 26.9138L122.903 31.9595L122.093 31.0251L129.63 24.6713Z" fill="#FFFCF6"/>
<path d="M138.226 35.7602L138.849 36.8814L134.613 39.3108L141.34 41.1796L142.15 42.6123L136.668 40.9927L133.741 47.5957L132.931 46.163L135.485 40.619L133.367 39.9337L130.377 41.6156L129.754 40.4944L138.226 35.7602Z" fill="#FFFCF6"/>
<path d="M146.761 54.3842L147.072 55.63L142.961 56.6267L144.207 61.6101L148.318 60.6134L148.629 61.8592L139.099 64.1641L138.787 62.9182L143.148 61.8592L141.902 56.8759L137.541 57.9348L137.23 56.689L146.761 54.3842Z" fill="#FFFCF6"/>
<path d="M150 72.3249C150.125 75.4395 147.757 77.1214 145.079 77.246C142.4 77.3705 139.909 75.9378 139.722 72.8232C139.535 69.7086 141.964 68.0267 144.643 67.9021C147.321 67.7775 149.813 69.2102 150 72.3249ZM140.843 72.7609C140.968 75.128 143.085 76.0624 145.017 75.9378C146.948 75.8132 149.003 74.7543 148.879 72.3871C148.754 70.02 146.636 69.0857 144.705 69.2102C142.774 69.3348 140.718 70.3938 140.843 72.7609Z" fill="#FFFCF6"/>
<path d="M148.256 84.7211L148.692 81.4819L149.751 81.6065L148.754 89.3931L147.695 89.2685L148.131 86.0293L139.535 84.908L139.722 83.5999L148.256 84.7211Z" fill="#FFFCF6"/>
<path d="M147.634 94.3146L145.703 100.793L144.644 100.482L146.201 95.2489L143.211 94.3769L141.779 99.2357L140.72 98.9242L142.152 94.0654L138.913 93.131L137.356 98.4259L136.297 98.1144L138.228 91.5737L147.634 94.3146Z" fill="#FFFCF6"/>
<path d="M143.645 105.962L143.084 107.146L135.235 103.408L132.993 108.08L131.996 107.582L134.799 101.726L143.645 105.962Z" fill="#FFFCF6"/>
</g>
<path d="M73.098 53.631C72.9191 52.2355 74.0063 51 75.4133 51C76.7264 51 77.7411 52.1531 77.5741 53.4556L75.3248 71L73.098 53.631Z" fill="#FCD043"/>
<path d="M92.6923 68.7729C94.0878 68.5939 95.3232 69.6811 95.3232 71.0881C95.3232 72.4012 94.1701 73.4159 92.8677 73.2489L75.3232 70.9996L92.6923 68.7729Z" fill="#FCD043"/>
<path d="M86.0842 57.2024C86.9445 56.0891 88.5868 55.9843 89.5817 56.9791C90.5102 57.9077 90.4123 59.4405 89.3733 60.2435L75.377 71.0587L86.0842 57.2024Z" fill="#FCD043"/>
<path d="M89.24 81.7687C90.3533 82.629 90.4581 84.2714 89.4633 85.2662C88.5347 86.1948 87.0019 86.0969 86.1989 85.0578L75.3836 71.0616L89.24 81.7687Z" fill="#FCD043"/>
<path d="M77.5484 88.369C77.7274 89.7645 76.6402 91 75.2332 91C73.9201 91 72.9054 89.8469 73.0724 88.5444L75.3216 71L77.5484 88.369Z" fill="#FCD043"/>
<path d="M57.9542 73.2271C56.5587 73.4061 55.3232 72.3189 55.3232 70.9119C55.3232 69.5988 56.4763 68.5841 57.7788 68.7511L75.3232 71.0004L57.9542 73.2271Z" fill="#FCD043"/>
<path d="M64.6717 84.9167C63.8114 86.03 62.1691 86.1349 61.1742 85.14C60.2457 84.2115 60.3435 82.6786 61.3826 81.8757L75.3788 71.0604L64.6717 84.9167Z" fill="#FCD043"/>
<path d="M61.5237 60.3514C60.4104 59.4911 60.3056 57.8487 61.3004 56.8539C62.229 55.9253 63.7618 56.0232 64.5647 57.0623L75.38 71.0585L61.5237 60.3514Z" fill="#FCD043"/>
</svg>
