<svg width="150" height="149" viewBox="0 0 150 149" fill="none" xmlns="http://www.w3.org/2000/svg">
<path id="Star 5" d="M75 0L80.4577 49.3236L105.505 6.48409L90.4294 53.7633L130.736 24.8152L97.7332 61.875L146.329 51.8237L101.106 72.2561L149.589 82.8396L99.9652 83.1117L139.952 112.5L94.5076 92.5647L119.084 135.676L85.6768 98.9806L90.5934 148.361L75 101.25L59.4066 148.361L64.3232 98.9806L30.9161 135.676L55.4924 92.5647L10.0481 112.5L50.0348 83.1117L0.410858 82.8396L48.8938 72.2561L3.67076 51.8237L52.2668 61.875L19.2641 24.8152L59.5706 53.7633L44.4948 6.48409L69.5423 49.3236L75 0Z" fill="#FCD043"/>
</svg>
